# xmcd
#
# Track frame offsets: 
#        150
#        18376
#        40113
#        60091
#        87083
#        106047
#        127770
#        146525
#        165096
#        193941
#        210666
#
# Disc length: 3217 seconds
#
# Revision: 0
# Processed by: cddbd v1.5.2PL0 Copyright (c) Steve Scherf et al.
# Submitted via: ExactAudioCopy v0.95b3
#
DISCID=7c0c8f0b
DTITLE=Stoney LaRue - Live at Billy Bob's Texas
DYEAR=2006
DGENRE=Country
TTITLE0=Down In Flames
TTITLE1=Solid Gone
TTITLE2=Idabel Blues
TTITLE3=One Chord Song
TTITLE4=Fee Don't Touch The Ground
TTITLE5=Oklahoma Breakdown
TTITLE6=Let Me Hold You
TTITLE7=Texas Moon
TTITLE8=Goin' Down The Road Feelin' Bad
TTITLE9=Walk Away
TTITLE10=Forever Young
EXTD=
EXTT0=
EXTT1=
EXTT2=
EXTT3=
EXTT4=
EXTT5=
EXTT6=
EXTT7=
EXTT8=
EXTT9=
EXTT10=
PLAYORDER=
